# xmcd
#
# Track frame offsets:
#	183
#	21538
#	40605
#	60983
#	74125
#	95813
#	115595
#	130808
#	145170
#	156663
#
# Disc length: 2507 seconds
# Revision: 0
# Processed by: cddbd v1.5.2PL0 Copyright (c) Steve Scherf et al.
# Submitted via: dBpowerAMP V12.0
#
DISCID=9209c90a
DTITLE=Otis Clay - The Only Way Is Up
DYEAR=1900
DGENRE=R&B
TTITLE0=The Only Way Is Up
TTITLE1=Cheatin' in the Next Room
TTITLE2=Check It Out
TTITLE3=Turn Back The Hands Of Time
TTITLE4=If I Could Open Up My Heart
TTITLE5=Messin' With My Mind
TTITLE6=Special Kind Of Love
TTITLE7=All I Need Is You
TTITLE8=Victim Of Circumstance
TTITLE9=I'm Gonna Hate Myself In The Morning
EXTD=
EXTT0=
EXTT1=
EXTT2=
EXTT3=
EXTT4=
EXTT5=
EXTT6=
EXTT7=
EXTT8=
EXTT9=
PLAYORDER=
